<svg t="1575104080459" class="icon" viewBox="0 0 1024 1024" version="1.1" xmlns="http://www.w3.org/2000/svg" p-id="1903" width="48" height="48"><path d="M606.968443 354.784352 260.608971 354.784352c-5.408173 0-9.790994-4.38282-9.790994-9.790994 0-5.40715 4.383844-9.790994 9.790994-9.790994l346.359472 0c5.406127 0 9.790994 4.383844 9.790994 9.790994C616.759437 350.401532 612.37457 354.784352 606.968443 354.784352z" p-id="1904" fill="#1296db"></path><path d="M482.276537 521.081843 260.608971 521.081843c-5.408173 0-9.790994-4.383844-9.790994-9.792017 0-5.40715 4.383844-9.790994 9.790994-9.790994l221.667565 0c5.408173 0 9.790994 4.383844 9.790994 9.790994C492.06753 516.697999 487.68471 521.081843 482.276537 521.081843z" p-id="1905" fill="#1296db"></path><path d="M681.925622 816.464293c-1.998517 0-3.985778-0.611937-5.672186-1.808182-2.923586-2.078335-4.479011-5.588275-4.051269-9.149381l6.613628-55.149041-36.377512-40.500413c-2.350534-2.615571-3.115967-6.291287-2.006703-9.628288 1.107217-3.337002 3.919263-5.823636 7.366781-6.514367l51.954279-10.411117 25.606191-48.448432c1.694595-3.209088 5.02648-5.216815 8.656147-5.216815l0 0c3.629667 0 6.961552 2.007727 8.656147 5.217838l25.603121 48.447409 51.956326 10.411117c3.447519 0.690732 6.259564 3.177366 7.368828 6.514367 1.107217 3.337002 0.341784 7.013741-2.00875 9.628288l-36.375465 40.501436 6.609535 55.148018c0.427742 3.562129-1.127683 7.072069-4.053316 9.149381-2.923586 2.075265-6.749728 2.388397-9.971096 0.811482l-47.78533-23.381523-47.789423 23.381523C684.863535 816.135812 683.389974 816.464293 681.925622 816.464293zM734.016001 771.394818c1.472538 0 2.946099 0.331551 4.303003 0.9967l35.920094 17.576307-4.994758-41.684378c-0.335644-2.799766 0.551562-5.609765 2.436492-7.708566l27.872814-31.030737-39.686884-7.952112c-2.885723-0.577145-5.358031-2.423189-6.733355-5.02648l-19.119453-36.177967-19.1215 36.178991c-1.375324 2.602268-3.845585 4.448312-6.731308 5.025457L668.478356 709.543122l27.872814 31.030737c1.88493 2.098801 2.772136 4.9088 2.436492 7.708566l-4.998851 41.684378 35.923164-17.576307C731.069903 771.727393 732.54244 771.394818 734.016001 771.394818z" p-id="1906" fill="#1296db"></path><path d="M725.297432 896.671033c-95.161337 0-172.58059-77.43972-172.58059-172.624593s77.419254-172.622546 172.58059-172.622546c95.15929 0 172.576497 77.437673 172.576497 172.622546S820.456722 896.671033 725.297432 896.671033zM725.297432 571.005882c-84.362386 0-152.998603 68.653613-152.998603 153.040559 0 84.388992 68.635193 153.042605 152.998603 153.042605s152.99451-68.653613 152.99451-153.042605C878.291942 639.659495 809.660842 571.005882 725.297432 571.005882z" p-id="1907" fill="#1296db"></path><path d="M500.75233 895.251707 219.03818 895.251707c-51.232848 0-92.914156-41.693588-92.914156-92.941785L126.124024 220.269729c0-51.248198 41.681308-92.941785 92.914156-92.941785l581.888743 0c51.234895 0 92.917226 41.693588 92.917226 92.941785L893.84415 488.191758c0 5.40715-4.384867 9.790994-9.790994 9.790994s-9.790994-4.383844-9.790994-9.790994L874.262162 220.269729c0-40.449247-32.897248-73.358775-73.334215-73.358775L219.03818 146.910954c-40.434921 0-73.332169 32.909527-73.332169 73.358775l0 582.039169c0 40.450271 32.896224 73.358775 73.332169 73.358775l281.71415 0c5.406127 0 9.790994 4.383844 9.790994 9.790994S506.158457 895.251707 500.75233 895.251707z" p-id="1908" fill="#1296db"></path></svg>
